# MagicaVoxel @ Ephtracy

# group
o 

# material
mtllib player-3.mtl
usemtl palette

# normals
vn -1 0 0
vn 1 0 0
vn 0 0 1
vn 0 0 -1
vn 0 -1 0
vn 0 1 0

# texcoords
vt 0.365234 0.5
vt 0.369141 0.5
vt 0.373047 0.5
vt 0.478516 0.5
vt 0.513672 0.5
vt 0.537109 0.5
vt 0.748047 0.5
vt 0.958984 0.5
vt 0.962891 0.5
vt 0.966797 0.5
vt 0.974609 0.5
vt 0.982422 0.5

# verts
v -0.5 0.3 0.2
v -0.5 0.3 -0.2
v -0.5 0.6 0.2
v -0.5 0.6 -0.2
v -0.5 0.7 0.2
v -0.5 0.7 0.1
v -0.5 0.7 0
v -0.5 0.7 -0.2
v -0.5 0.8 0.2
v -0.5 0.8 0.1
v -0.5 0.8 0
v -0.5 0.8 -0.1
v -0.5 0.8 -0.2
v -0.5 0.9 0.2
v -0.5 0.9 0.1
v -0.5 0.9 0
v -0.5 0.9 -0.1
v -0.5 0.9 -0.2
v -0.5 1 0.2
v -0.5 1 -0.2
v -0.5 1.3 0.2
v -0.5 1.3 0.1
v -0.5 1.3 -0.1
v -0.5 1.3 -0.2
v -0.5 1.4 0.1
v -0.5 1.4 -0.1
v -0.4 0.3 0.3
v -0.4 0.3 0.2
v -0.4 0.3 -0.2
v -0.4 0.3 -0.3
v -0.4 0.6 0.3
v -0.4 0.6 0.2
v -0.4 0.6 -0.2
v -0.4 0.6 -0.3
v -0.4 0.7 0.3
v -0.4 0.7 0.2
v -0.4 0.7 -0.2
v -0.4 0.7 -0.3
v -0.4 0.8 0.3
v -0.4 0.8 0.2
v -0.4 0.8 -0.2
v -0.4 0.8 -0.3
v -0.4 0.9 0.3
v -0.4 0.9 0.2
v -0.4 0.9 -0.2
v -0.4 0.9 -0.3
v -0.4 1 0.3
v -0.4 1 0.2
v -0.4 1 -0.2
v -0.4 1 -0.3
v -0.4 1.3 0.3
v -0.4 1.3 0.2
v -0.4 1.3 0.1
v -0.4 1.3 -0.1
v -0.4 1.3 -0.2
v -0.4 1.3 -0.3
v -0.4 1.4 0.2
v -0.4 1.4 0.1
v -0.4 1.4 -0.1
v -0.4 1.4 -0.2
v -0.2 0.7 0.4
v -0.2 0.7 0.3
v -0.2 0.8 0.4
v -0.2 0.8 0.3
v -0.2 0.9 0.4
v -0.2 0.9 0.3
v -0.1 1.3 -0.2
v -0.1 1.3 -0.3
v -0.1 1.4 -0.2
v -0.1 1.4 -0.3
v 0.1 1.1 0.3
v 0.1 1.1 0.2
v 0.1 1.2 0.3
v 0.1 1.2 0.2
v 0.1 1.3 0.1
v 0.1 1.3 0
v 0.1 1.4 0.1
v 0.1 1.4 0
v 0.2 1.2 0.3
v 0.2 1.2 0.2
v 0.2 1.3 0.3
v 0.2 1.3 0.2
v 0.2 1.3 0.1
v 0.2 1.4 0.2
v 0.2 1.4 0.1
v -0.2 1.2 0.3
v -0.2 1.2 0.2
v -0.2 1.3 0.3
v -0.2 1.3 0.2
v -0.2 1.3 0.1
v -0.2 1.4 0.2
v -0.2 1.4 0.1
v -0.1 1.1 0.3
v -0.1 1.1 0.2
v -0.1 1.2 0.3
v -0.1 1.2 0.2
v -0.1 1.3 0.1
v -0.1 1.3 0
v -0.1 1.4 0.1
v -0.1 1.4 0
v 0.1 1.3 -0.2
v 0.1 1.3 -0.3
v 0.1 1.4 -0.2
v 0.1 1.4 -0.3
v 0.2 0.7 0.4
v 0.2 0.7 0.3
v 0.2 0.8 0.3
v 0.2 0.9 0.4
v 0.2 0.9 0.3
v 0.4 0.3 0.3
v 0.4 0.3 0.2
v 0.4 0.3 -0.2
v 0.4 0.3 -0.3
v 0.4 0.6 0.3
v 0.4 0.6 0.2
v 0.4 0.6 -0.2
v 0.4 0.6 -0.3
v 0.4 0.7 0.3
v 0.4 0.7 0.2
v 0.4 0.7 -0.2
v 0.4 0.7 -0.3
v 0.4 0.8 0.3
v 0.4 0.8 0.2
v 0.4 0.8 -0.2
v 0.4 0.8 -0.3
v 0.4 0.9 0.3
v 0.4 0.9 0.2
v 0.4 0.9 -0.2
v 0.4 0.9 -0.3
v 0.4 1 0.3
v 0.4 1 0.2
v 0.4 1 -0.2
v 0.4 1 -0.3
v 0.4 1.3 0.3
v 0.4 1.3 0.2
v 0.4 1.3 0.1
v 0.4 1.3 -0.1
v 0.4 1.3 -0.2
v 0.4 1.3 -0.3
v 0.4 1.4 0.2
v 0.4 1.4 0.1
v 0.4 1.4 -0.1
v 0.4 1.4 -0.2
v 0.5 0.3 0.2
v 0.5 0.3 -0.2
v 0.5 0.6 0.2
v 0.5 0.6 -0.2
v 0.5 0.7 0.2
v 0.5 0.7 0.1
v 0.5 0.7 0
v 0.5 0.7 -0.2
v 0.5 0.8 0.2
v 0.5 0.8 0.1
v 0.5 0.8 0
v 0.5 0.8 -0.1
v 0.5 0.8 -0.2
v 0.5 0.9 0.2
v 0.5 0.9 0.1
v 0.5 0.9 0
v 0.5 0.9 -0.1
v 0.5 0.9 -0.2
v 0.5 1 0.2
v 0.5 1 -0.2
v 0.5 1.3 0.2
v 0.5 1.3 0.1
v 0.5 1.3 -0.1
v 0.5 1.3 -0.2
v 0.5 1.4 0.1
v 0.5 1.4 -0.1
v -0.2 0.7 0.4
v -0.2 0.8 0.4
v -0.2 0.9 0.4
v -0.1 0.7 0.4
v -0.1 0.8 0.4
v -0.1 0.9 0.4
v 0.1 0.7 0.4
v 0.1 0.8 0.4
v 0.1 0.9 0.4
v 0.2 0.7 0.4
v 0.2 0.9 0.4
v -0.4 0.3 0.3
v -0.4 0.6 0.3
v -0.4 0.7 0.3
v -0.4 0.8 0.3
v -0.4 0.9 0.3
v -0.4 1 0.3
v -0.4 1.3 0.3
v -0.2 0.7 0.3
v -0.2 0.8 0.3
v -0.2 0.9 0.3
v -0.2 1.2 0.3
v -0.2 1.3 0.3
v -0.1 0.7 0.3
v -0.1 0.9 0.3
v -0.1 1.1 0.3
v -0.1 1.2 0.3
v 0.1 0.7 0.3
v 0.1 0.9 0.3
v 0.1 1.1 0.3
v 0.1 1.2 0.3
v 0.2 0.7 0.3
v 0.2 0.8 0.3
v 0.2 0.9 0.3
v 0.2 1.2 0.3
v 0.2 1.3 0.3
v 0.4 0.3 0.3
v 0.4 0.6 0.3
v 0.4 0.7 0.3
v 0.4 0.8 0.3
v 0.4 0.9 0.3
v 0.4 1 0.3
v 0.4 1.3 0.3
v -0.5 0.3 0.2
v -0.5 0.6 0.2
v -0.5 0.7 0.2
v -0.5 0.8 0.2
v -0.5 0.9 0.2
v -0.5 1 0.2
v -0.5 1.3 0.2
v -0.4 0.3 0.2
v -0.4 0.6 0.2
v -0.4 0.7 0.2
v -0.4 0.8 0.2
v -0.4 0.9 0.2
v -0.4 1 0.2
v -0.4 1.3 0.2
v -0.4 1.4 0.2
v -0.2 1.2 0.2
v -0.2 1.3 0.2
v -0.2 1.4 0.2
v -0.1 1.1 0.2
v -0.1 1.2 0.2
v 0.1 1.1 0.2
v 0.1 1.2 0.2
v 0.2 1.2 0.2
v 0.2 1.3 0.2
v 0.2 1.4 0.2
v 0.4 0.3 0.2
v 0.4 0.6 0.2
v 0.4 0.7 0.2
v 0.4 0.8 0.2
v 0.4 0.9 0.2
v 0.4 1 0.2
v 0.4 1.3 0.2
v 0.4 1.4 0.2
v 0.5 0.3 0.2
v 0.5 0.6 0.2
v 0.5 0.7 0.2
v 0.5 0.8 0.2
v 0.5 0.9 0.2
v 0.5 1 0.2
v 0.5 1.3 0.2
v -0.5 1.3 0.1
v -0.5 1.4 0.1
v -0.4 1.3 0.1
v -0.4 1.4 0.1
v -0.2 1.3 0.1
v -0.2 1.4 0.1
v -0.1 1.3 0.1
v -0.1 1.4 0.1
v 0.1 1.3 0.1
v 0.1 1.4 0.1
v 0.2 1.3 0.1
v 0.2 1.4 0.1
v 0.4 1.3 0.1
v 0.4 1.4 0.1
v 0.5 1.3 0.1
v 0.5 1.4 0.1
v -0.1 1.3 0
v -0.1 1.4 0
v 0.1 1.3 0
v 0.1 1.4 0
v -0.5 1.3 -0.1
v -0.5 1.4 -0.1
v -0.4 1.3 -0.1
v -0.4 1.4 -0.1
v 0.4 1.3 -0.1
v 0.4 1.4 -0.1
v 0.5 1.3 -0.1
v 0.5 1.4 -0.1
v -0.5 0.3 -0.2
v -0.5 0.6 -0.2
v -0.5 0.7 -0.2
v -0.5 0.8 -0.2
v -0.5 0.9 -0.2
v -0.5 1 -0.2
v -0.5 1.3 -0.2
v -0.4 0.3 -0.2
v -0.4 0.6 -0.2
v -0.4 0.7 -0.2
v -0.4 0.8 -0.2
v -0.4 0.9 -0.2
v -0.4 1 -0.2
v -0.4 1.3 -0.2
v -0.4 1.4 -0.2
v -0.1 1.3 -0.2
v -0.1 1.4 -0.2
v 0.1 1.3 -0.2
v 0.1 1.4 -0.2
v 0.4 0.3 -0.2
v 0.4 0.6 -0.2
v 0.4 0.7 -0.2
v 0.4 0.8 -0.2
v 0.4 0.9 -0.2
v 0.4 1 -0.2
v 0.4 1.3 -0.2
v 0.4 1.4 -0.2
v 0.5 0.3 -0.2
v 0.5 0.6 -0.2
v 0.5 0.7 -0.2
v 0.5 0.8 -0.2
v 0.5 0.9 -0.2
v 0.5 1 -0.2
v 0.5 1.3 -0.2
v -0.4 0.3 -0.3
v -0.4 0.6 -0.3
v -0.4 0.7 -0.3
v -0.4 0.8 -0.3
v -0.4 0.9 -0.3
v -0.4 1 -0.3
v -0.4 1.3 -0.3
v -0.3 0.7 -0.3
v -0.3 0.8 -0.3
v -0.3 0.9 -0.3
v -0.2 0.7 -0.3
v -0.2 0.8 -0.3
v -0.2 0.9 -0.3
v -0.1 0.7 -0.3
v -0.1 0.8 -0.3
v -0.1 0.9 -0.3
v -0.1 1.3 -0.3
v -0.1 1.4 -0.3
v 0 0.8 -0.3
v 0 0.9 -0.3
v 0.1 0.7 -0.3
v 0.1 0.8 -0.3
v 0.1 0.9 -0.3
v 0.1 1.3 -0.3
v 0.1 1.4 -0.3
v 0.3 0.7 -0.3
v 0.3 0.8 -0.3
v 0.4 0.3 -0.3
v 0.4 0.6 -0.3
v 0.4 0.7 -0.3
v 0.4 0.8 -0.3
v 0.4 0.9 -0.3
v 0.4 1 -0.3
v 0.4 1.3 -0.3
v -0.4 0.3 0.3
v 0.4 0.3 0.3
v -0.5 0.3 0.2
v -0.4 0.3 0.2
v 0.4 0.3 0.2
v 0.5 0.3 0.2
v -0.5 0.3 -0.2
v -0.4 0.3 -0.2
v 0.4 0.3 -0.2
v 0.5 0.3 -0.2
v -0.4 0.3 -0.3
v 0.4 0.3 -0.3
v -0.2 0.7 0.4
v -0.1 0.7 0.4
v 0.1 0.7 0.4
v 0.2 0.7 0.4
v -0.2 0.7 0.3
v -0.1 0.7 0.3
v 0.1 0.7 0.3
v 0.2 0.7 0.3
v -0.2 0.9 0.4
v -0.1 0.9 0.4
v 0.1 0.9 0.4
v 0.2 0.9 0.4
v -0.2 0.9 0.3
v -0.1 0.9 0.3
v 0.1 0.9 0.3
v 0.2 0.9 0.3
v -0.1 1.1 0.3
v 0.1 1.1 0.3
v -0.1 1.1 0.2
v 0.1 1.1 0.2
v -0.2 1.2 0.3
v -0.1 1.2 0.3
v 0.1 1.2 0.3
v 0.2 1.2 0.3
v -0.2 1.2 0.2
v -0.1 1.2 0.2
v 0.1 1.2 0.2
v 0.2 1.2 0.2
v -0.4 1.3 0.3
v -0.2 1.3 0.3
v 0.2 1.3 0.3
v 0.4 1.3 0.3
v -0.5 1.3 0.2
v -0.4 1.3 0.2
v -0.2 1.3 0.2
v 0.2 1.3 0.2
v 0.4 1.3 0.2
v 0.5 1.3 0.2
v -0.5 1.3 0.1
v -0.4 1.3 0.1
v -0.2 1.3 0.1
v -0.1 1.3 0.1
v 0.1 1.3 0.1
v 0.2 1.3 0.1
v 0.4 1.3 0.1
v 0.5 1.3 0.1
v -0.1 1.3 0
v 0.1 1.3 0
v -0.5 1.3 -0.1
v -0.4 1.3 -0.1
v 0.4 1.3 -0.1
v 0.5 1.3 -0.1
v -0.5 1.3 -0.2
v -0.4 1.3 -0.2
v -0.1 1.3 -0.2
v 0.1 1.3 -0.2
v 0.4 1.3 -0.2
v 0.5 1.3 -0.2
v -0.4 1.3 -0.3
v -0.1 1.3 -0.3
v 0.1 1.3 -0.3
v 0.4 1.3 -0.3
v -0.4 1.4 0.2
v -0.2 1.4 0.2
v 0.2 1.4 0.2
v 0.4 1.4 0.2
v -0.5 1.4 0.1
v -0.4 1.4 0.1
v -0.2 1.4 0.1
v -0.1 1.4 0.1
v 0.1 1.4 0.1
v 0.2 1.4 0.1
v 0.4 1.4 0.1
v 0.5 1.4 0.1
v -0.1 1.4 0
v 0.1 1.4 0
v -0.5 1.4 -0.1
v -0.4 1.4 -0.1
v 0.4 1.4 -0.1
v 0.5 1.4 -0.1
v -0.4 1.4 -0.2
v -0.1 1.4 -0.2
v 0.1 1.4 -0.2
v 0.4 1.4 -0.2
v -0.1 1.4 -0.3
v 0.1 1.4 -0.3

# faces
f 3/4/1 2/4/1 1/4/1
f 4/4/1 2/4/1 3/4/1
f 5/12/1 4/12/1 3/12/1
f 6/12/1 4/12/1 5/12/1
f 7/12/1 4/12/1 6/12/1
f 8/12/1 4/12/1 7/12/1
f 9/1/1 6/1/1 5/1/1
f 10/2/1 7/2/1 6/2/1
f 10/1/1 6/1/1 9/1/1
f 11/3/1 8/3/1 7/3/1
f 11/2/1 7/2/1 10/2/1
f 12/3/1 8/3/1 11/3/1
f 13/3/1 8/3/1 12/3/1
f 14/2/1 10/2/1 9/2/1
f 15/1/1 11/1/1 10/1/1
f 15/2/1 10/2/1 14/2/1
f 16/6/1 12/6/1 11/6/1
f 16/1/1 11/1/1 15/1/1
f 17/2/1 13/2/1 12/2/1
f 17/6/1 12/6/1 16/6/1
f 18/2/1 13/2/1 17/2/1
f 19/12/1 15/12/1 14/12/1
f 19/12/1 16/12/1 15/12/1
f 19/12/1 18/12/1 17/12/1
f 19/12/1 17/12/1 16/12/1
f 20/12/1 18/12/1 19/12/1
f 21/4/1 20/4/1 19/4/1
f 22/4/1 20/4/1 21/4/1
f 23/4/1 20/4/1 22/4/1
f 24/4/1 20/4/1 23/4/1
f 25/4/1 23/4/1 22/4/1
f 26/4/1 23/4/1 25/4/1
f 31/4/1 28/4/1 27/4/1
f 32/4/1 28/4/1 31/4/1
f 33/4/1 30/4/1 29/4/1
f 34/4/1 30/4/1 33/4/1
f 35/12/1 32/12/1 31/12/1
f 36/12/1 32/12/1 35/12/1
f 37/12/1 34/12/1 33/12/1
f 38/12/1 34/12/1 37/12/1
f 39/2/1 36/2/1 35/2/1
f 40/2/1 36/2/1 39/2/1
f 41/2/1 38/2/1 37/2/1
f 42/2/1 38/2/1 41/2/1
f 43/3/1 40/3/1 39/3/1
f 44/3/1 40/3/1 43/3/1
f 45/1/1 42/1/1 41/1/1
f 46/1/1 42/1/1 45/1/1
f 47/12/1 44/12/1 43/12/1
f 48/12/1 44/12/1 47/12/1
f 49/12/1 46/12/1 45/12/1
f 50/12/1 46/12/1 49/12/1
f 51/4/1 48/4/1 47/4/1
f 52/4/1 48/4/1 51/4/1
f 55/4/1 50/4/1 49/4/1
f 56/4/1 50/4/1 55/4/1
f 57/4/1 53/4/1 52/4/1
f 58/4/1 53/4/1 57/4/1
f 59/4/1 55/4/1 54/4/1
f 60/4/1 55/4/1 59/4/1
f 63/11/1 62/11/1 61/11/1
f 64/11/1 62/11/1 63/11/1
f 65/10/1 64/10/1 63/10/1
f 66/10/1 64/10/1 65/10/1
f 69/4/1 68/4/1 67/4/1
f 70/4/1 68/4/1 69/4/1
f 73/4/1 72/4/1 71/4/1
f 74/4/1 72/4/1 73/4/1
f 77/4/1 76/4/1 75/4/1
f 78/4/1 76/4/1 77/4/1
f 81/4/1 80/4/1 79/4/1
f 82/4/1 80/4/1 81/4/1
f 84/4/1 83/4/1 82/4/1
f 85/4/1 83/4/1 84/4/1
f 86/4/2 87/4/2 88/4/2
f 88/4/2 87/4/2 89/4/2
f 89/4/2 90/4/2 91/4/2
f 91/4/2 90/4/2 92/4/2
f 93/4/2 94/4/2 95/4/2
f 95/4/2 94/4/2 96/4/2
f 97/4/2 98/4/2 99/4/2
f 99/4/2 98/4/2 100/4/2
f 101/4/2 102/4/2 103/4/2
f 103/4/2 102/4/2 104/4/2
f 105/9/2 106/9/2 107/9/2
f 105/9/2 107/9/2 108/9/2
f 108/9/2 107/9/2 109/9/2
f 110/4/2 111/4/2 114/4/2
f 114/4/2 111/4/2 115/4/2
f 112/4/2 113/4/2 116/4/2
f 116/4/2 113/4/2 117/4/2
f 114/12/2 115/12/2 118/12/2
f 118/12/2 115/12/2 119/12/2
f 116/12/2 117/12/2 120/12/2
f 120/12/2 117/12/2 121/12/2
f 118/2/2 119/2/2 122/2/2
f 122/2/2 119/2/2 123/2/2
f 120/2/2 121/2/2 124/2/2
f 124/2/2 121/2/2 125/2/2
f 122/3/2 123/3/2 126/3/2
f 126/3/2 123/3/2 127/3/2
f 124/1/2 125/1/2 128/1/2
f 128/1/2 125/1/2 129/1/2
f 126/12/2 127/12/2 130/12/2
f 130/12/2 127/12/2 131/12/2
f 128/12/2 129/12/2 132/12/2
f 132/12/2 129/12/2 133/12/2
f 130/4/2 131/4/2 134/4/2
f 134/4/2 131/4/2 135/4/2
f 132/4/2 133/4/2 138/4/2
f 138/4/2 133/4/2 139/4/2
f 135/4/2 136/4/2 140/4/2
f 140/4/2 136/4/2 141/4/2
f 137/4/2 138/4/2 142/4/2
f 142/4/2 138/4/2 143/4/2
f 144/4/2 145/4/2 146/4/2
f 146/4/2 145/4/2 147/4/2
f 146/12/2 147/12/2 148/12/2
f 148/12/2 147/12/2 149/12/2
f 149/12/2 147/12/2 150/12/2
f 150/12/2 147/12/2 151/12/2
f 148/1/2 149/1/2 152/1/2
f 149/2/2 150/2/2 153/2/2
f 152/1/2 149/1/2 153/1/2
f 150/3/2 151/3/2 154/3/2
f 153/2/2 150/2/2 154/2/2
f 154/3/2 151/3/2 155/3/2
f 155/3/2 151/3/2 156/3/2
f 152/2/2 153/2/2 157/2/2
f 153/1/2 154/1/2 158/1/2
f 157/2/2 153/2/2 158/2/2
f 154/6/2 155/6/2 159/6/2
f 158/1/2 154/1/2 159/1/2
f 155/2/2 156/2/2 160/2/2
f 159/6/2 155/6/2 160/6/2
f 160/2/2 156/2/2 161/2/2
f 157/12/2 158/12/2 162/12/2
f 158/12/2 159/12/2 162/12/2
f 160/12/2 161/12/2 162/12/2
f 159/12/2 160/12/2 162/12/2
f 162/12/2 161/12/2 163/12/2
f 162/4/2 163/4/2 164/4/2
f 164/4/2 163/4/2 165/4/2
f 165/4/2 163/4/2 166/4/2
f 166/4/2 163/4/2 167/4/2
f 165/4/2 166/4/2 168/4/2
f 168/4/2 166/4/2 169/4/2
f 173/11/3 171/11/3 170/11/3
f 174/10/3 172/10/3 171/10/3
f 174/11/3 171/11/3 173/11/3
f 175/10/3 172/10/3 174/10/3
f 176/10/3 174/10/3 173/10/3
f 177/8/3 175/8/3 174/8/3
f 177/10/3 174/10/3 176/10/3
f 178/8/3 175/8/3 177/8/3
f 179/9/3 177/9/3 176/9/3
f 179/9/3 178/9/3 177/9/3
f 180/9/3 178/9/3 179/9/3
f 188/12/3 183/12/3 182/12/3
f 188/2/3 184/2/3 183/2/3
f 189/3/3 185/3/3 184/3/3
f 189/2/3 184/2/3 188/2/3
f 190/12/3 186/12/3 185/12/3
f 190/3/3 185/3/3 189/3/3
f 191/4/3 187/4/3 186/4/3
f 192/4/3 187/4/3 191/4/3
f 193/12/3 188/12/3 182/12/3
f 194/12/3 186/12/3 190/12/3
f 195/4/3 191/4/3 186/4/3
f 196/4/3 191/4/3 195/4/3
f 197/12/3 193/12/3 182/12/3
f 198/12/3 186/12/3 194/12/3
f 199/4/3 195/4/3 186/4/3
f 201/12/3 197/12/3 182/12/3
f 203/12/3 186/12/3 198/12/3
f 204/4/3 200/4/3 199/4/3
f 206/4/3 182/4/3 181/4/3
f 207/12/3 201/12/3 182/12/3
f 207/4/3 182/4/3 206/4/3
f 208/2/3 202/2/3 201/2/3
f 208/12/3 201/12/3 207/12/3
f 209/3/3 203/3/3 202/3/3
f 209/2/3 202/2/3 208/2/3
f 210/12/3 186/12/3 203/12/3
f 210/3/3 203/3/3 209/3/3
f 211/4/3 205/4/3 204/4/3
f 211/12/3 186/12/3 210/12/3
f 211/4/3 204/4/3 199/4/3
f 211/4/3 199/4/3 186/4/3
f 212/4/3 205/4/3 211/4/3
f 220/4/3 214/4/3 213/4/3
f 221/12/3 215/12/3 214/12/3
f 221/4/3 214/4/3 220/4/3
f 222/1/3 216/1/3 215/1/3
f 222/12/3 215/12/3 221/12/3
f 223/2/3 217/2/3 216/2/3
f 223/1/3 216/1/3 222/1/3
f 224/12/3 218/12/3 217/12/3
f 224/2/3 217/2/3 223/2/3
f 225/4/3 219/4/3 218/4/3
f 225/12/3 218/12/3 224/12/3
f 226/4/3 219/4/3 225/4/3
f 229/4/3 227/4/3 226/4/3
f 230/4/3 227/4/3 229/4/3
f 232/7/3 229/7/3 228/7/3
f 233/7/3 232/7/3 231/7/3
f 234/7/3 229/7/3 232/7/3
f 234/7/3 232/7/3 233/7/3
f 235/7/3 229/7/3 234/7/3
f 236/7/3 229/7/3 235/7/3
f 244/4/3 237/4/3 236/4/3
f 245/4/3 237/4/3 244/4/3
f 246/4/3 239/4/3 238/4/3
f 247/12/3 240/12/3 239/12/3
f 247/4/3 239/4/3 246/4/3
f 248/1/3 241/1/3 240/1/3
f 248/12/3 240/12/3 247/12/3
f 249/2/3 242/2/3 241/2/3
f 249/1/3 241/1/3 248/1/3
f 250/12/3 243/12/3 242/12/3
f 250/2/3 242/2/3 249/2/3
f 251/4/3 244/4/3 243/4/3
f 251/12/3 243/12/3 250/12/3
f 252/4/3 244/4/3 251/4/3
f 255/4/3 254/4/3 253/4/3
f 256/4/3 254/4/3 255/4/3
f 259/4/3 258/4/3 257/4/3
f 260/4/3 258/4/3 259/4/3
f 263/4/3 262/4/3 261/4/3
f 264/4/3 262/4/3 263/4/3
f 267/4/3 266/4/3 265/4/3
f 268/4/3 266/4/3 267/4/3
f 271/4/3 270/4/3 269/4/3
f 272/4/3 270/4/3 271/4/3
f 273/4/4 274/4/4 275/4/4
f 275/4/4 274/4/4 276/4/4
f 277/4/4 278/4/4 279/4/4
f 279/4/4 278/4/4 280/4/4
f 281/4/4 282/4/4 288/4/4
f 282/12/4 283/12/4 289/12/4
f 288/4/4 282/4/4 289/4/4
f 283/3/4 284/3/4 290/3/4
f 289/12/4 283/12/4 290/12/4
f 284/2/4 285/2/4 291/2/4
f 290/3/4 284/3/4 291/3/4
f 285/12/4 286/12/4 292/12/4
f 291/2/4 285/2/4 292/2/4
f 286/4/4 287/4/4 293/4/4
f 292/12/4 286/12/4 293/12/4
f 293/4/4 287/4/4 294/4/4
f 294/4/4 295/4/4 296/4/4
f 296/4/4 295/4/4 297/4/4
f 298/4/4 299/4/4 306/4/4
f 306/4/4 299/4/4 307/4/4
f 300/4/4 301/4/4 308/4/4
f 301/12/4 302/12/4 309/12/4
f 308/4/4 301/4/4 309/4/4
f 302/3/4 303/3/4 310/3/4
f 309/12/4 302/12/4 310/12/4
f 303/2/4 304/2/4 311/2/4
f 310/3/4 303/3/4 311/3/4
f 304/12/4 305/12/4 312/12/4
f 311/2/4 304/2/4 312/2/4
f 305/4/4 306/4/4 313/4/4
f 312/12/4 305/12/4 313/12/4
f 313/4/4 306/4/4 314/4/4
f 316/12/4 317/12/4 322/12/4
f 317/2/4 318/2/4 322/2/4
f 318/1/4 319/1/4 323/1/4
f 322/2/4 318/2/4 323/2/4
f 319/12/4 320/12/4 324/12/4
f 323/1/4 319/1/4 324/1/4
f 322/1/4 323/1/4 325/1/4
f 316/12/4 322/12/4 325/12/4
f 323/2/4 324/2/4 326/2/4
f 325/1/4 323/1/4 326/1/4
f 324/12/4 320/12/4 327/12/4
f 326/2/4 324/2/4 327/2/4
f 325/3/4 326/3/4 328/3/4
f 316/12/4 325/12/4 328/12/4
f 326/1/4 327/1/4 329/1/4
f 328/3/4 326/3/4 329/3/4
f 327/12/4 320/12/4 330/12/4
f 329/1/4 327/1/4 330/1/4
f 320/4/4 321/4/4 331/4/4
f 328/6/4 329/6/4 333/6/4
f 329/2/4 330/2/4 333/2/4
f 330/12/4 320/12/4 334/12/4
f 333/2/4 330/2/4 334/2/4
f 328/6/4 333/6/4 335/6/4
f 316/12/4 328/12/4 335/12/4
f 333/3/4 334/3/4 336/3/4
f 335/6/4 333/6/4 336/6/4
f 334/12/4 320/12/4 337/12/4
f 336/3/4 334/3/4 337/3/4
f 331/4/4 332/4/4 338/4/4
f 320/4/4 331/4/4 338/4/4
f 338/4/4 332/4/4 339/4/4
f 335/3/4 336/3/4 340/3/4
f 316/12/4 335/12/4 340/12/4
f 336/1/4 337/1/4 341/1/4
f 340/3/4 336/3/4 341/3/4
f 315/4/4 316/4/4 342/4/4
f 316/12/4 340/12/4 343/12/4
f 342/4/4 316/4/4 343/4/4
f 340/2/4 341/2/4 344/2/4
f 343/12/4 340/12/4 344/12/4
f 341/1/4 337/1/4 345/1/4
f 344/2/4 341/2/4 345/2/4
f 337/12/4 320/12/4 346/12/4
f 345/1/4 337/1/4 346/1/4
f 320/4/4 338/4/4 347/4/4
f 346/12/4 320/12/4 347/12/4
f 347/4/4 338/4/4 348/4/4
f 352/4/5 350/4/5 349/4/5
f 353/4/5 350/4/5 352/4/5
f 355/4/5 352/4/5 351/4/5
f 356/7/5 353/7/5 352/7/5
f 356/4/5 352/4/5 355/4/5
f 357/4/5 354/4/5 353/4/5
f 357/7/5 353/7/5 356/7/5
f 358/4/5 354/4/5 357/4/5
f 359/4/5 357/4/5 356/4/5
f 360/4/5 357/4/5 359/4/5
f 365/11/5 362/11/5 361/11/5
f 366/10/5 363/10/5 362/10/5
f 366/11/5 362/11/5 365/11/5
f 367/9/5 364/9/5 363/9/5
f 367/10/5 363/10/5 366/10/5
f 368/9/5 364/9/5 367/9/5
f 369/10/6 370/10/6 373/10/6
f 370/8/6 371/8/6 374/8/6
f 373/10/6 370/10/6 374/10/6
f 371/9/6 372/9/6 375/9/6
f 374/8/6 371/8/6 375/8/6
f 375/9/6 372/9/6 376/9/6
f 377/4/6 378/4/6 379/4/6
f 379/4/6 378/4/6 380/4/6
f 381/4/6 382/4/6 385/4/6
f 385/4/6 382/4/6 386/4/6
f 383/4/6 384/4/6 387/4/6
f 387/4/6 384/4/6 388/4/6
f 389/4/6 390/4/6 394/4/6
f 394/4/6 390/4/6 395/4/6
f 391/4/6 392/4/6 396/4/6
f 396/4/6 392/4/6 397/4/6
f 393/4/6 394/4/6 399/4/6
f 399/4/6 394/4/6 400/4/6
f 395/7/6 396/7/6 401/7/6
f 401/7/6 396/7/6 402/7/6
f 402/7/6 396/7/6 403/7/6
f 403/7/6 396/7/6 404/7/6
f 397/4/6 398/4/6 405/4/6
f 405/4/6 398/4/6 406/4/6
f 402/7/6 403/7/6 407/7/6
f 407/7/6 403/7/6 408/7/6
f 409/4/6 410/4/6 413/4/6
f 413/4/6 410/4/6 414/4/6
f 411/4/6 412/4/6 417/4/6
f 417/4/6 412/4/6 418/4/6
f 414/4/6 415/4/6 419/4/6
f 419/4/6 415/4/6 420/4/6
f 416/4/6 417/4/6 421/4/6
f 421/4/6 417/4/6 422/4/6
f 423/4/6 424/4/6 428/4/6
f 428/4/6 424/4/6 429/4/6
f 425/4/6 426/4/6 432/4/6
f 432/4/6 426/4/6 433/4/6
f 429/4/6 430/4/6 435/4/6
f 427/4/6 428/4/6 435/4/6
f 428/4/6 429/4/6 435/4/6
f 433/4/6 434/4/6 436/4/6
f 432/4/6 433/4/6 436/4/6
f 431/4/6 432/4/6 436/4/6
f 427/4/6 435/4/6 437/4/6
f 435/4/6 436/4/6 437/4/6
f 437/4/6 436/4/6 438/4/6
f 436/4/6 434/4/6 439/4/6
f 438/4/6 436/4/6 439/4/6
f 439/4/6 434/4/6 440/4/6
f 438/4/6 439/4/6 441/4/6
f 441/4/6 439/4/6 442/4/6
f 442/4/6 439/4/6 443/4/6
f 443/4/6 439/4/6 444/4/6
f 442/4/6 443/4/6 445/4/6
f 445/4/6 443/4/6 446/4/6
